<svg width="470" height="176" viewBox="0 0 470 176" fill="none" xmlns="http://www.w3.org/2000/svg">
<rect width="470" height="176" rx="30" fill="#5C5C5C"/>
<rect x="31" y="96" width="10" height="10" fill="#D9D9D9"/>
<rect x="31" y="26" width="10" height="10" fill="#D9D9D9"/>
<rect x="61" y="82" width="10" height="10" fill="#FF6464"/>
<rect x="61" y="68" width="10" height="10" fill="#D9D9D9"/>
<rect x="61" y="26" width="10" height="10" fill="#D9D9D9"/>
<rect x="61" y="54" width="10" height="10" fill="#D9D9D9"/>
<rect x="61" y="96" width="10" height="10" fill="#D9D9D9"/>
<rect x="76" y="40" width="10" height="10" fill="#D9D9D9"/>
<rect x="76" y="26" width="10" height="10" fill="#D9D9D9"/>
<rect x="76" y="54" width="10" height="10" fill="#D9D9D9"/>
<rect x="46" y="40" width="10" height="10" fill="#D9D9D9"/>
<rect x="46" y="26" width="10" height="10" fill="#D9D9D9"/>
<rect x="46" y="54" width="10" height="10" fill="#D9D9D9"/>
<rect x="46" y="82" width="10" height="10" fill="#D9D9D9"/>
<rect x="46" y="68" width="10" height="10" fill="#D9D9D9"/>
<rect x="31" y="40" width="10" height="10" fill="#D9D9D9"/>
<rect x="46" y="96" width="10" height="10" fill="#D9D9D9"/>
<rect x="31" y="54" width="10" height="10" fill="#D9D9D9"/>
<rect x="31" y="26" width="10" height="10" fill="#D9D9D9"/>
<rect x="31" y="54" width="10" height="10" fill="#D9D9D9"/>
<rect x="31" y="82" width="10" height="10" fill="#D9D9D9"/>
<rect x="31" y="68" width="10" height="10" fill="#D9D9D9"/>
<rect x="61" y="40" width="10" height="10" fill="#D9D9D9"/>
<rect x="61" y="26" width="10" height="10" fill="#D9D9D9"/>
<rect x="61" y="54" width="10" height="10" fill="#D9D9D9"/>
<rect x="61" y="68" width="10" height="10" fill="#FF6464"/>
<rect x="61" y="96" width="10" height="10" fill="#FF6464"/>
<rect x="76" y="40" width="10" height="10" fill="#D9D9D9"/>
<rect x="76" y="26" width="10" height="10" fill="#D9D9D9"/>
<rect x="46" y="40" width="10" height="10" fill="#FF6464"/>
<rect x="46" y="96" width="10" height="10" fill="#D9D9D9"/>
<rect x="76" y="54" width="10" height="10" fill="#D9D9D9"/>
<rect x="46" y="54" width="10" height="10" fill="#FF6464"/>
<rect x="46" y="26" width="10" height="10" fill="#D9D9D9"/>
<rect x="46" y="68" width="10" height="10" fill="#FF6464"/>
<rect x="31" y="26" width="10" height="10" fill="#FF6464"/>
<rect x="31" y="40" width="10" height="10" fill="#FF6464"/>
<rect x="31" y="54" width="10" height="10" fill="#D9D9D9"/>
<rect x="31" y="68" width="10" height="10" fill="#FF6464"/>
<rect x="97" y="96" width="10" height="10" fill="#D9D9D9"/>
<rect x="97" y="26" width="10" height="10" fill="#D9D9D9"/>
<rect x="127" y="82" width="10" height="10" fill="#D9D9D9"/>
<rect x="127" y="68" width="10" height="10" fill="#D9D9D9"/>
<rect x="127" y="26" width="10" height="10" fill="#D9D9D9"/>
<rect x="127" y="54" width="10" height="10" fill="#D9D9D9"/>
<rect x="127" y="96" width="10" height="10" fill="#D9D9D9"/>
<rect x="142" y="40" width="10" height="10" fill="#D9D9D9"/>
<rect x="142" y="26" width="10" height="10" fill="#D9D9D9"/>
<rect x="142" y="54" width="10" height="10" fill="#D9D9D9"/>
<rect x="112" y="40" width="10" height="10" fill="#D9D9D9"/>
<rect x="112" y="26" width="10" height="10" fill="#D9D9D9"/>
<rect x="112" y="54" width="10" height="10" fill="#D9D9D9"/>
<rect x="112" y="82" width="10" height="10" fill="#D9D9D9"/>
<rect x="112" y="68" width="10" height="10" fill="#D9D9D9"/>
<rect x="97" y="40" width="10" height="10" fill="#D9D9D9"/>
<rect x="112" y="96" width="10" height="10" fill="#D9D9D9"/>
<rect x="97" y="54" width="10" height="10" fill="#D9D9D9"/>
<rect x="97" y="26" width="10" height="10" fill="#D9D9D9"/>
<rect x="97" y="54" width="10" height="10" fill="#D9D9D9"/>
<rect x="97" y="82" width="10" height="10" fill="#D9D9D9"/>
<rect x="97" y="68" width="10" height="10" fill="#D9D9D9"/>
<rect x="127" y="40" width="10" height="10" fill="#D9D9D9"/>
<rect x="127" y="26" width="10" height="10" fill="#D9D9D9"/>
<rect x="127" y="54" width="10" height="10" fill="#D9D9D9"/>
<rect x="127" y="68" width="10" height="10" fill="#D9D9D9"/>
<rect x="127" y="96" width="10" height="10" fill="#D9D9D9"/>
<rect x="142" y="40" width="10" height="10" fill="#D9D9D9"/>
<rect x="142" y="26" width="10" height="10" fill="#D9D9D9"/>
<rect x="112" y="40" width="10" height="10" fill="#D9D9D9"/>
<rect x="112" y="96" width="10" height="10" fill="#D9D9D9"/>
<rect x="142" y="54" width="10" height="10" fill="#D9D9D9"/>
<rect x="112" y="54" width="10" height="10" fill="#D9D9D9"/>
<rect x="112" y="26" width="10" height="10" fill="#D9D9D9"/>
<rect x="112" y="68" width="10" height="10" fill="#D9D9D9"/>
<rect x="97" y="26" width="10" height="10" fill="#D9D9D9"/>
<rect x="97" y="40" width="10" height="10" fill="#D9D9D9"/>
<rect x="97" y="54" width="10" height="10" fill="#D9D9D9"/>
<rect x="97" y="68" width="10" height="10" fill="#D9D9D9"/>
<rect x="97" y="96" width="10" height="10" fill="#D9D9D9"/>
<rect x="97" y="26" width="10" height="10" fill="#D9D9D9"/>
<rect x="127" y="82" width="10" height="10" fill="#D9D9D9"/>
<rect x="127" y="68" width="10" height="10" fill="#D9D9D9"/>
<rect x="127" y="26" width="10" height="10" fill="#D9D9D9"/>
<rect x="127" y="54" width="10" height="10" fill="#D9D9D9"/>
<rect x="127" y="96" width="10" height="10" fill="#D9D9D9"/>
<rect x="142" y="40" width="10" height="10" fill="#D9D9D9"/>
<rect x="142" y="26" width="10" height="10" fill="#D9D9D9"/>
<rect x="142" y="54" width="10" height="10" fill="#D9D9D9"/>
<rect x="112" y="40" width="10" height="10" fill="#D9D9D9"/>
<rect x="112" y="26" width="10" height="10" fill="#D9D9D9"/>
<rect x="112" y="54" width="10" height="10" fill="#D9D9D9"/>
<rect x="112" y="82" width="10" height="10" fill="#FF6464"/>
<rect x="112" y="68" width="10" height="10" fill="#D9D9D9"/>
<rect x="97" y="40" width="10" height="10" fill="#D9D9D9"/>
<rect x="112" y="96" width="10" height="10" fill="#D9D9D9"/>
<rect x="97" y="54" width="10" height="10" fill="#D9D9D9"/>
<rect x="97" y="26" width="10" height="10" fill="#D9D9D9"/>
<rect x="97" y="54" width="10" height="10" fill="#D9D9D9"/>
<rect x="97" y="82" width="10" height="10" fill="#D9D9D9"/>
<rect x="97" y="68" width="10" height="10" fill="#D9D9D9"/>
<rect x="127" y="40" width="10" height="10" fill="#FF6464"/>
<rect x="127" y="26" width="10" height="10" fill="#FF6464"/>
<rect x="127" y="54" width="10" height="10" fill="#FF6464"/>
<rect x="127" y="68" width="10" height="10" fill="#FF6464"/>
<rect x="127" y="96" width="10" height="10" fill="#D9D9D9"/>
<rect x="142" y="40" width="10" height="10" fill="#FF6464"/>
<rect x="142" y="26" width="10" height="10" fill="#D9D9D9"/>
<rect x="112" y="40" width="10" height="10" fill="#D9D9D9"/>
<rect x="112" y="96" width="10" height="10" fill="#FF6464"/>
<rect x="142" y="54" width="10" height="10" fill="#FF6464"/>
<rect x="112" y="54" width="10" height="10" fill="#D9D9D9"/>
<rect x="112" y="26" width="10" height="10" fill="#FF6464"/>
<rect x="112" y="68" width="10" height="10" fill="#D9D9D9"/>
<rect x="97" y="26" width="10" height="10" fill="#FF6464"/>
<rect x="97" y="40" width="10" height="10" fill="#FF6464"/>
<rect x="97" y="54" width="10" height="10" fill="#FF6464"/>
<rect x="97" y="68" width="10" height="10" fill="#D9D9D9"/>
<rect x="165" y="96" width="10" height="10" fill="#FF6464"/>
<rect x="165" y="26" width="10" height="10" fill="#D9D9D9"/>
<rect x="195" y="82" width="10" height="10" fill="#D9D9D9"/>
<rect x="195" y="68" width="10" height="10" fill="#D9D9D9"/>
<rect x="195" y="26" width="10" height="10" fill="#D9D9D9"/>
<rect x="195" y="54" width="10" height="10" fill="#D9D9D9"/>
<rect x="195" y="96" width="10" height="10" fill="#D9D9D9"/>
<rect x="210" y="40" width="10" height="10" fill="#D9D9D9"/>
<rect x="210" y="26" width="10" height="10" fill="#D9D9D9"/>
<rect x="210" y="54" width="10" height="10" fill="#D9D9D9"/>
<rect x="180" y="40" width="10" height="10" fill="#D9D9D9"/>
<rect x="180" y="26" width="10" height="10" fill="#D9D9D9"/>
<rect x="180" y="54" width="10" height="10" fill="#D9D9D9"/>
<rect x="180" y="82" width="10" height="10" fill="#FF6464"/>
<rect x="180" y="68" width="10" height="10" fill="#D9D9D9"/>
<rect x="165" y="40" width="10" height="10" fill="#D9D9D9"/>
<rect x="180" y="96" width="10" height="10" fill="#D9D9D9"/>
<rect x="165" y="54" width="10" height="10" fill="#D9D9D9"/>
<rect x="165" y="26" width="10" height="10" fill="#D9D9D9"/>
<rect x="165" y="54" width="10" height="10" fill="#D9D9D9"/>
<rect x="165" y="82" width="10" height="10" fill="#FF6464"/>
<rect x="165" y="68" width="10" height="10" fill="#D9D9D9"/>
<rect x="195" y="40" width="10" height="10" fill="#D9D9D9"/>
<rect x="195" y="26" width="10" height="10" fill="#D9D9D9"/>
<rect x="195" y="54" width="10" height="10" fill="#D9D9D9"/>
<rect x="195" y="68" width="10" height="10" fill="#D9D9D9"/>
<rect x="195" y="96" width="10" height="10" fill="#D9D9D9"/>
<rect x="210" y="40" width="10" height="10" fill="#D9D9D9"/>
<rect x="210" y="26" width="10" height="10" fill="#D9D9D9"/>
<rect x="180" y="40" width="10" height="10" fill="#FF6464"/>
<rect x="180" y="96" width="10" height="10" fill="#FF6464"/>
<rect x="210" y="54" width="10" height="10" fill="#D9D9D9"/>
<rect x="180" y="54" width="10" height="10" fill="#FF6464"/>
<rect x="180" y="26" width="10" height="10" fill="#FF6464"/>
<rect x="180" y="68" width="10" height="10" fill="#FF6464"/>
<rect x="165" y="26" width="10" height="10" fill="#FF6464"/>
<rect x="165" y="40" width="10" height="10" fill="#FF6464"/>
<rect x="165" y="54" width="10" height="10" fill="#FF6464"/>
<rect x="165" y="68" width="10" height="10" fill="#FF6464"/>
<rect x="233" y="96" width="10" height="10" fill="#FF6464"/>
<rect x="233" y="26" width="10" height="10" fill="#FF6464"/>
<rect x="263" y="82" width="10" height="10" fill="#FF6464"/>
<rect x="263" y="68" width="10" height="10" fill="#FF6464"/>
<rect x="263" y="26" width="10" height="10" fill="#FF6464"/>
<rect x="263" y="54" width="10" height="10" fill="#FF6464"/>
<rect x="263" y="96" width="10" height="10" fill="#FF6464"/>
<rect x="278" y="40" width="10" height="10" fill="#FF6464"/>
<rect x="278" y="26" width="10" height="10" fill="#FF6464"/>
<rect x="278" y="54" width="10" height="10" fill="#FF6464"/>
<rect x="248" y="40" width="10" height="10" fill="#FF6464"/>
<rect x="248" y="26" width="10" height="10" fill="#FF6464"/>
<rect x="248" y="54" width="10" height="10" fill="#FF6464"/>
<rect x="248" y="82" width="10" height="10" fill="#FF6464"/>
<rect x="248" y="68" width="10" height="10" fill="#FF6464"/>
<rect x="233" y="40" width="10" height="10" fill="#FF6464"/>
<rect x="248" y="96" width="10" height="10" fill="#FF6464"/>
<rect x="233" y="54" width="10" height="10" fill="#FF6464"/>
<rect x="233" y="26" width="10" height="10" fill="#FF6464"/>
<rect x="233" y="54" width="10" height="10" fill="#FF6464"/>
<rect x="233" y="82" width="10" height="10" fill="#FF6464"/>
<rect x="233" y="68" width="10" height="10" fill="#FF6464"/>
<rect x="263" y="40" width="10" height="10" fill="#FF6464"/>
<rect x="263" y="26" width="10" height="10" fill="#FF6464"/>
<rect x="263" y="54" width="10" height="10" fill="#FF6464"/>
<rect x="263" y="68" width="10" height="10" fill="#FF6464"/>
<rect x="263" y="96" width="10" height="10" fill="#FF6464"/>
<rect x="278" y="40" width="10" height="10" fill="#FF6464"/>
<rect x="278" y="26" width="10" height="10" fill="#FF6464"/>
<rect x="248" y="40" width="10" height="10" fill="#FF6464"/>
<rect x="248" y="96" width="10" height="10" fill="#FF6464"/>
<rect x="278" y="54" width="10" height="10" fill="#FF6464"/>
<rect x="248" y="54" width="10" height="10" fill="#FF6464"/>
<rect x="248" y="26" width="10" height="10" fill="#FF6464"/>
<rect x="248" y="68" width="10" height="10" fill="#DFDFDF"/>
<rect x="233" y="26" width="10" height="10" fill="#FF6464"/>
<rect x="233" y="40" width="10" height="10" fill="#FF6464"/>
<rect x="233" y="54" width="10" height="10" fill="#FF6464"/>
<rect x="233" y="68" width="10" height="10" fill="#FF6464"/>
<rect x="304" y="96" width="10" height="10" fill="#FF6464"/>
<rect x="304" y="26" width="10" height="10" fill="#FF6464"/>
<rect x="334" y="82" width="10" height="10" fill="#FF6464"/>
<rect x="334" y="68" width="10" height="10" fill="#FF6464"/>
<rect x="334" y="26" width="10" height="10" fill="#FF6464"/>
<rect x="334" y="54" width="10" height="10" fill="#FF6464"/>
<rect x="334" y="96" width="10" height="10" fill="#FF6464"/>
<rect x="349" y="40" width="10" height="10" fill="#FF6464"/>
<rect x="349" y="26" width="10" height="10" fill="#FF6464"/>
<rect x="349" y="54" width="10" height="10" fill="#FF6464"/>
<rect x="319" y="40" width="10" height="10" fill="#FF6464"/>
<rect x="319" y="26" width="10" height="10" fill="#FF6464"/>
<rect x="319" y="54" width="10" height="10" fill="#FF6464"/>
<rect x="319" y="82" width="10" height="10" fill="#FF6464"/>
<rect x="319" y="68" width="10" height="10" fill="#FF6464"/>
<rect x="304" y="40" width="10" height="10" fill="#FF6464"/>
<rect x="319" y="96" width="10" height="10" fill="#FF6464"/>
<rect x="304" y="54" width="10" height="10" fill="#FF6464"/>
<rect x="304" y="26" width="10" height="10" fill="#FF6464"/>
<rect x="304" y="54" width="10" height="10" fill="#FF6464"/>
<rect x="304" y="82" width="10" height="10" fill="#FF6464"/>
<rect x="304" y="68" width="10" height="10" fill="#FF6464"/>
<rect x="334" y="40" width="10" height="10" fill="#FF6464"/>
<rect x="334" y="26" width="10" height="10" fill="#FF6464"/>
<rect x="334" y="54" width="10" height="10" fill="#FF6464"/>
<rect x="334" y="68" width="10" height="10" fill="#FF6464"/>
<rect x="334" y="96" width="10" height="10" fill="#FF6464"/>
<rect x="349" y="40" width="10" height="10" fill="#FF6464"/>
<rect x="349" y="26" width="10" height="10" fill="#FF6464"/>
<rect x="319" y="40" width="10" height="10" fill="#FF6464"/>
<rect x="319" y="96" width="10" height="10" fill="#FF6464"/>
<rect x="349" y="54" width="10" height="10" fill="#FF6464"/>
<rect x="319" y="54" width="10" height="10" fill="#FF6464"/>
<rect x="319" y="26" width="10" height="10" fill="#FF6464"/>
<rect x="319" y="68" width="10" height="10" fill="#FF6464"/>
<rect x="304" y="26" width="10" height="10" fill="#FF6464"/>
<rect x="304" y="40" width="10" height="10" fill="#FF6464"/>
<rect x="304" y="54" width="10" height="10" fill="#FF6464"/>
<rect x="304" y="68" width="10" height="10" fill="#FF6464"/>
<rect x="374" y="96" width="10" height="10" fill="#FF6464"/>
<rect x="374" y="26" width="10" height="10" fill="#FF6464"/>
<rect x="404" y="82" width="10" height="10" fill="#FF6464"/>
<rect x="404" y="68" width="10" height="10" fill="#FF6464"/>
<rect x="404" y="26" width="10" height="10" fill="#FF6464"/>
<rect x="404" y="54" width="10" height="10" fill="#FF6464"/>
<rect x="404" y="96" width="10" height="10" fill="#FF6464"/>
<rect x="419" y="40" width="10" height="10" fill="#FF6464"/>
<rect x="419" y="26" width="10" height="10" fill="#FF6464"/>
<rect x="419" y="54" width="10" height="10" fill="#FF6464"/>
<rect x="389" y="40" width="10" height="10" fill="#FF6464"/>
<rect x="389" y="26" width="10" height="10" fill="#FF6464"/>
<rect x="389" y="54" width="10" height="10" fill="#FF6464"/>
<rect x="389" y="82" width="10" height="10" fill="#FF6464"/>
<rect x="389" y="68" width="10" height="10" fill="#FF6464"/>
<rect x="374" y="40" width="10" height="10" fill="#FF6464"/>
<rect x="389" y="96" width="10" height="10" fill="#FF6464"/>
<rect x="374" y="54" width="10" height="10" fill="#FF6464"/>
<rect x="374" y="26" width="10" height="10" fill="#FF6464"/>
<rect x="374" y="54" width="10" height="10" fill="#FF6464"/>
<rect x="374" y="82" width="10" height="10" fill="#FF6464"/>
<rect x="374" y="68" width="10" height="10" fill="#FF6464"/>
<rect x="404" y="40" width="10" height="10" fill="#FF6464"/>
<rect x="404" y="26" width="10" height="10" fill="#FF6464"/>
<rect x="404" y="54" width="10" height="10" fill="#FF6464"/>
<rect x="404" y="68" width="10" height="10" fill="#FF6464"/>
<rect x="404" y="96" width="10" height="10" fill="#FF6464"/>
<rect x="419" y="40" width="10" height="10" fill="#FF6464"/>
<rect x="419" y="26" width="10" height="10" fill="#FF6464"/>
<rect x="389" y="40" width="10" height="10" fill="#FF6464"/>
<rect x="389" y="96" width="10" height="10" fill="#FF6464"/>
<rect x="419" y="54" width="10" height="10" fill="#FF6464"/>
<rect x="389" y="54" width="10" height="10" fill="#FF6464"/>
<rect x="389" y="26" width="10" height="10" fill="#FF6464"/>
<rect x="389" y="68" width="10" height="10" fill="#FF6464"/>
<rect x="374" y="26" width="10" height="10" fill="#FF6464"/>
<rect x="374" y="40" width="10" height="10" fill="#FF6464"/>
<rect x="374" y="54" width="10" height="10" fill="#FF6464"/>
<rect x="374" y="68" width="10" height="10" fill="#FF6464"/>
</svg>
